<?xml version="1.0" encoding="utf-8"?>
<!-- Generator: Adobe Illustrator 18.1.1, SVG Export Plug-In . SVG Version: 6.00 Build 0)  -->
<svg version="1.1" id="Layer_1" xmlns="http://www.w3.org/2000/svg" xmlns:xlink="http://www.w3.org/1999/xlink" x="0px" y="0px"
	 viewBox="0 0 1628.2 1151.3" enable-background="new 0 0 1628.2 1151.3" xml:space="preserve">
<g>
	<g>
		<path fill="#B455A0" d="M250.7,401.6c-29.5,4.2-56.7-16.2-61-45.6c-4.3-29.5,16.2-56.7,45.6-61c29.4-4.2,56.8,16.2,61,45.6
			C300.6,370.1,280.1,397.4,250.7,401.6z"/>
		<defs>
			<filter id="Adobe_OpacityMaskFilter" filterUnits="userSpaceOnUse" x="189.2" y="294.4" width="107.7" height="107.8">
				<feFlood  style="flood-color:white;flood-opacity:1" result="back"/>
				<feBlend  in="SourceGraphic" in2="back" mode="normal"/>
			</filter>
		</defs>
		<mask maskUnits="userSpaceOnUse" x="189.2" y="294.4" width="107.7" height="107.8" id="SVGID_1_">
			<g filter="url(#Adobe_OpacityMaskFilter)">
				<defs>
					<filter id="Adobe_OpacityMaskFilter_1_" filterUnits="userSpaceOnUse" x="189.2" y="294.4" width="107.7" height="107.8">
						<feFlood  style="flood-color:white;flood-opacity:1" result="back"/>
						<feBlend  in="SourceGraphic" in2="back" mode="normal"/>
					</filter>
				</defs>
				<mask maskUnits="userSpaceOnUse" x="189.2" y="294.4" width="107.7" height="107.8" id="SVGID_1_">
					<g filter="url(#Adobe_OpacityMaskFilter_1_)">
					</g>
				</mask>
				<linearGradient id="SVGID_2_" gradientUnits="userSpaceOnUse" x1="259.0282" y1="314.2108" x2="219.9558" y2="397.4179">
					<stop  offset="0.2006" style="stop-color:#000000"/>
					<stop  offset="0.4779" style="stop-color:#626262"/>
					<stop  offset="0.7337" style="stop-color:#B7B7B7"/>
					<stop  offset="0.9128" style="stop-color:#EBEBEB"/>
					<stop  offset="1" style="stop-color:#FFFFFF"/>
				</linearGradient>
				<path mask="url(#SVGID_1_)" fill="url(#SVGID_2_)" d="M250.7,401.6c-29.5,4.2-56.7-16.2-61-45.6c-4.3-29.5,16.2-56.7,45.6-61
					c29.4-4.2,56.8,16.2,61,45.6C300.6,370.1,280.1,397.4,250.7,401.6z"/>
			</g>
		</mask>
		<linearGradient id="SVGID_3_" gradientUnits="userSpaceOnUse" x1="259.0282" y1="314.2108" x2="219.9558" y2="397.4179">
			<stop  offset="0.2006" style="stop-color:#B455A0"/>
			<stop  offset="0.6461" style="stop-color:#A93995"/>
			<stop  offset="1" style="stop-color:#A3238E"/>
		</linearGradient>
		<path fill="url(#SVGID_3_)" d="M250.7,401.6c-29.5,4.2-56.7-16.2-61-45.6c-4.3-29.5,16.2-56.7,45.6-61c29.4-4.2,56.8,16.2,61,45.6
			C300.6,370.1,280.1,397.4,250.7,401.6z"/>
		<path fill="#3B3946" d="M342.7,480.3c-1.1-21.8-4.3-47.1,8.1-68.3c10.8-18.6,28.4-31,47.1-37.8c0,0,25.9-7.8,36.1-27.2
			c14.7-27.6,4-63-20.5-77.6c-20.3-12-58.8-2.9-58.8-2.9c-25,3.5-33.7,1.7-53.5-8.5c-20.8-10.7-33.8-37.2-45.1-63.2
			c-4.1-12.9-12.9-24.3-25.5-31.7c-27.1-15.8-61.8-6.6-77.5,20.5c-15.8,27.1-7.5,63.5,20.5,77.6c22.5,11.3,41.2,5.3,41.2,5.3
			c26.1-7,51.3-5.5,74.3,7.9c41.9,24.4,55.3,78.8,30.9,120.7c-24.4,42-71.3,56.9-114.5,34.7c-23.5-12.1-42-54.3-46.7-63.6
			c-7.3-14.8-12.5-22.8-25.5-30.4c-27.1-15.8-61.8-6.6-77.6,20.5c-15.8,27.1-8.2,59.4,18.9,75.2c12.2,7,25.9,9.1,38.7,6.8
			c0,0,52.2-7.1,76.2,6.8c24,14,43.3,63,43.6,62.8c6.9,14.8,12.9,23.3,25,30.4c27,15.8,61.8,6.6,77.6-20.6
			C342.5,505.9,343.9,496.3,342.7,480.3z"/>
		<path fill="#B455A0" d="M117.8,271.5c4.7-12,3.7-17,2.4-28.7c-6.2-35.2-10.7-44.4-1.4-67.2c18.6-45.7,71.5-69.9,116.8-50.9
			c26.7,11.2,41.4,32.3,53.1,63c8.1,17.5,15.9,24.9,30.2,30.9c29.4,12.3,62.9-1.6,74.9-31.2c12-29.6-2-63.5-31.4-75.8
			c-12.7-5.4-26.3-5.7-38.5-2c-19.7,6.7-42.9,8.8-62.6-2.3C225.3,87.4,208,47,208,47c-6.7-14.5-15.1-25-30-30.2
			c-30.2-10.5-56.8,1.6-70.3,23.3c-0.1,0.2-10.2,17.5-3.1,51.7c0,0,7.6,27.3-4.3,58.5c-10.4,27.2-28.4,37.8-58.3,50.5
			c-12.9,5.7-23.4,15.4-29.2,29.6c-12,29.5,2.5,59.9,31.8,72.2C73.8,314.9,106.3,301.2,117.8,271.5z"/>
		<g>
			<path fill="#272E3C" d="M800.5,407.1h-41.2V286.7c-0.3-6.4-0.7-46,25.6-74c16.9-18,40.3-27.1,69.6-27.1h21.8v41.2h-21.8
				c-17.7,0-30.7,4.6-39.6,14.1c-15.5,16.5-14.5,43.7-14.5,44l0,1.3V407.1z"/>
			<path fill="#272E3C" d="M508.9,254.3c-5.7,13.1-8.6,27.5-8.6,42.8c0,14.9,2.9,29.3,8.6,42.6c5.7,13.3,13.7,25.1,23.8,35.2
				c10,10,21.9,18,35.3,23.7c13.2,5.7,27.6,8.5,42.6,8.5h109.6v-110c0-15.4-2.9-29.8-8.5-42.8c-5.8-13.2-13.7-25-23.5-34.8
				c-10-9.9-21.7-17.8-34.8-23.5c-13.3-5.7-27.7-8.6-42.8-8.6c-14.9,0-29.2,2.9-42.6,8.6c-13.3,5.6-25.2,13.5-35.3,23.5
				C522.6,229.3,514.6,241,508.9,254.3z M546.4,270.2c3.5-8.3,8.5-15.7,14.8-21.9c6.2-6.3,13.7-11.3,22.2-14.8
				c8.4-3.6,17.6-5.4,27.1-5.4c9.5,0,18.5,1.8,26.8,5.4c8.3,3.5,15.7,8.5,22,14.8c6.2,6.2,11.2,13.6,14.8,21.9
				c3.6,8.4,5.3,17.4,5.3,26.9v69.4h-69c-9.5,0-18.6-1.8-27.1-5.4c-8.8-3.8-16-8.6-22.2-14.8c-6.3-6.3-11.3-13.8-14.8-22.2
				c-3.6-8.4-5.4-17.5-5.4-27C541.1,287.6,542.9,278.6,546.4,270.2z"/>
			<path fill="#272E3C" d="M1096.2,339.6c5.7-13.4,8.6-27.7,8.6-42.6V89h-40.7v98.4h-69c-14.9,0-29.2,2.9-42.6,8.6
				c-13.3,5.7-25.1,13.5-35.2,23.5c-10.1,9.9-18.1,21.6-23.8,34.8c-5.7,13-8.6,27.4-8.6,42.8c0,15,2.9,29.4,8.6,42.6
				c5.6,13.2,13.6,25.1,23.8,35.2c10,10,21.8,18,35.2,23.7c13.2,5.7,27.6,8.5,42.6,8.5c15,0,29.4-2.9,42.6-8.5
				c13.4-5.7,25.2-13.7,35.1-23.7C1082.7,364.7,1090.6,352.9,1096.2,339.6z M1064.1,297.1c0,9.5-1.8,18.6-5.4,27
				c-3.5,8.4-8.5,15.9-14.8,22.2c-6.2,6.2-13.3,11.1-21.9,14.8c-8.5,3.6-17.5,5.4-26.9,5.4c-9.4,0-18.5-1.8-27-5.4
				c-8.8-3.7-16-8.6-22.3-14.8c-6.3-6.3-11.3-13.8-14.8-22.2c-3.6-8.5-5.4-17.6-5.4-27c0-9.4,1.8-18.4,5.4-26.8
				c3.6-8.3,8.6-15.7,14.8-21.9c6.3-6.3,13.8-11.3,22.3-14.8c8.4-3.6,17.5-5.4,27-5.4h69V297.1z"/>
			<path fill="#272E3C" d="M1350.3,340.7c5.7-13.5,8.6-27.8,8.6-42.6c0-15.2-2.9-29.5-8.6-42.7c-5.6-13.1-13.6-24.8-23.8-34.8
				c-10-9.8-21.8-17.8-35-23.5c-13.2-5.7-27.6-8.5-42.8-8.5c-14.9,0-29.3,2.9-42.6,8.5c-13.3,5.7-25.1,13.6-35,23.5
				c-10,10-17.9,21.7-23.5,34.8c-5.7,13.1-8.6,27.5-8.6,42.7c0,14.9,2.9,29.3,8.6,42.6c5.6,13.2,13.5,25.1,23.5,35.2
				c9.8,10,21.6,18,35,23.7c13.2,5.7,27.6,8.5,42.6,8.5c15.4,0,29.8-2.9,42.8-8.5c13.3-5.8,25.1-13.7,35-23.7
				C1336.7,365.7,1344.7,353.8,1350.3,340.7z M1312.8,325.1c-3.6,8.5-8.5,16-14.8,22.3c-6.3,6.2-13.8,11.2-22.2,14.8
				c-8.5,3.5-17.6,5.3-27.1,5.3c-9.6,0-18.6-1.8-27-5.3c-8.4-3.6-15.9-8.6-22.3-14.8c-6.3-6.3-11.2-13.8-14.8-22.3
				c-3.6-8.5-5.4-17.6-5.4-27.1c0-9.4,1.8-18.4,5.4-26.8c3.6-8.3,8.6-15.7,14.8-21.9c6.3-6.3,13.8-11.3,22.3-14.8
				c8.4-3.5,17.5-5.3,27-5.3c9.6,0,18.7,1.8,27.1,5.3c8.4,3.6,15.9,8.5,22.2,14.8c6.3,6.2,11.3,13.6,14.8,21.9
				c3.6,8.4,5.4,17.4,5.4,26.8C1318.1,307.4,1316.3,316.6,1312.8,325.1z"/>
			<path fill="#272E3C" d="M1396.6,255.3c-5.7,13.1-8.6,27.4-8.6,42.7c0,15,2.9,29.3,8.6,42.6c5.7,13.3,13.6,25.1,23.5,35.2
				c9.9,10,21.7,18,35,23.7c13.2,5.7,27.6,8.5,42.6,8.5h69.5v109.6h40.7V298c0-15.1-2.9-29.5-8.6-42.7c-5.6-13-13.6-24.7-23.8-34.8
				c-10-9.9-21.9-17.8-35.1-23.5c-13.2-5.7-27.6-8.5-42.8-8.5c-14.9,0-29.3,2.9-42.6,8.5c-13.3,5.7-25.1,13.6-35,23.5
				C1410.3,230.4,1402.3,242.1,1396.6,255.3z M1434.1,271.2c3.8-8.6,8.6-15.8,14.8-21.9c6.5-6.4,13.7-11.2,22-14.8
				c8.2-3.5,17.2-5.3,26.8-5.3c9.6,0,18.7,1.8,27.1,5.3c8.4,3.6,15.9,8.5,22.2,14.8c6.3,6.2,11.3,13.6,14.8,21.9
				c3.6,8.4,5.4,17.4,5.4,26.8v69.4h-69.5c-9.6,0-18.6-1.8-26.8-5.3c-8.3-3.6-15.5-8.4-22-14.8c-6.2-6.2-11.1-13.5-14.8-22.3
				c-3.6-8.5-5.4-17.7-5.4-27.1C1428.7,288.7,1430.6,279.7,1434.1,271.2z"/>
		</g>
		<g>
			<defs>
				<filter id="Adobe_OpacityMaskFilter_2_" filterUnits="userSpaceOnUse" x="8.5" y="13" width="389.6" height="294.1">
					<feFlood  style="flood-color:white;flood-opacity:1" result="back"/>
					<feBlend  in="SourceGraphic" in2="back" mode="normal"/>
				</filter>
			</defs>
			<mask maskUnits="userSpaceOnUse" x="8.5" y="13" width="389.6" height="294.1" id="SVGID_4_">
				<g filter="url(#Adobe_OpacityMaskFilter_2_)">
					<defs>
						<filter id="Adobe_OpacityMaskFilter_3_" filterUnits="userSpaceOnUse" x="8.5" y="13" width="389.6" height="294.1">
							<feFlood  style="flood-color:white;flood-opacity:1" result="back"/>
							<feBlend  in="SourceGraphic" in2="back" mode="normal"/>
						</filter>
					</defs>
					<mask maskUnits="userSpaceOnUse" x="8.5" y="13" width="389.6" height="294.1" id="SVGID_4_">
						<g filter="url(#Adobe_OpacityMaskFilter_3_)">
						</g>
					</mask>
					<linearGradient id="SVGID_5_" gradientUnits="userSpaceOnUse" x1="120.7479" y1="240.0463" x2="38.23" y2="318.7801">
						<stop  offset="0.2006" style="stop-color:#000000"/>
						<stop  offset="0.282" style="stop-color:#050505"/>
						<stop  offset="0.3808" style="stop-color:#141414"/>
						<stop  offset="0.4889" style="stop-color:#2D2D2D"/>
						<stop  offset="0.6034" style="stop-color:#4F4F4F"/>
						<stop  offset="0.7232" style="stop-color:#7B7B7B"/>
						<stop  offset="0.8473" style="stop-color:#B2B2B2"/>
						<stop  offset="0.9727" style="stop-color:#F0F0F0"/>
						<stop  offset="1" style="stop-color:#FFFFFF"/>
					</linearGradient>
					<path mask="url(#SVGID_4_)" fill="url(#SVGID_5_)" d="M117.8,271.5c4.7-12,3.7-17,2.4-28.7c-6.2-35.2-10.7-44.4-1.4-67.2
						c18.6-45.7,71.5-69.9,116.8-50.9c26.7,11.2,41.4,32.3,53.1,63c8.1,17.5,15.9,24.9,30.2,30.9c29.4,12.3,62.9-1.6,74.9-31.2
						c12-29.6-2-63.5-31.4-75.8c-12.7-5.4-26.3-5.7-38.5-2c-19.7,6.7-42.9,8.8-62.6-2.3C225.3,87.4,208,47,208,47
						c-6.7-14.5-15.1-25-30-30.2c-30.2-10.5-56.8,1.6-70.3,23.3c-0.1,0.2-10.2,17.5-3.1,51.7c0,0,7.6,27.3-4.3,58.5
						c-10.4,27.2-28.4,37.8-58.3,50.5c-12.9,5.7-23.4,15.4-29.2,29.6c-12,29.5,2.5,59.9,31.8,72.2
						C73.8,314.9,106.3,301.2,117.8,271.5z"/>
				</g>
			</mask>
			<linearGradient id="SVGID_6_" gradientUnits="userSpaceOnUse" x1="120.7479" y1="240.0463" x2="38.23" y2="318.7801">
				<stop  offset="0.2006" style="stop-color:#B455A0"/>
				<stop  offset="0.4092" style="stop-color:#B2519F"/>
				<stop  offset="0.6626" style="stop-color:#AD4499"/>
				<stop  offset="0.9382" style="stop-color:#A52B90"/>
				<stop  offset="1" style="stop-color:#A3238E"/>
			</linearGradient>
			<path fill="url(#SVGID_6_)" d="M117.8,271.5c4.7-12,3.7-17,2.4-28.7c-6.2-35.2-10.7-44.4-1.4-67.2
				c18.6-45.7,71.5-69.9,116.8-50.9c26.7,11.2,41.4,32.3,53.1,63c8.1,17.5,15.9,24.9,30.2,30.9c29.4,12.3,62.9-1.6,74.9-31.2
				c12-29.6-2-63.5-31.4-75.8c-12.7-5.4-26.3-5.7-38.5-2c-19.7,6.7-42.9,8.8-62.6-2.3C225.3,87.4,208,47,208,47
				c-6.7-14.5-15.1-25-30-30.2c-30.2-10.5-56.8,1.6-70.3,23.3c-0.1,0.2-10.2,17.5-3.1,51.7c0,0,7.6,27.3-4.3,58.5
				c-10.4,27.2-28.4,37.8-58.3,50.5c-12.9,5.7-23.4,15.4-29.2,29.6c-12,29.5,2.5,59.9,31.8,72.2C73.8,314.9,106.3,301.2,117.8,271.5
				z"/>
			<defs>
				<filter id="Adobe_OpacityMaskFilter_4_" filterUnits="userSpaceOnUse" x="8.5" y="13" width="389.6" height="294.1">
					<feFlood  style="flood-color:white;flood-opacity:1" result="back"/>
					<feBlend  in="SourceGraphic" in2="back" mode="normal"/>
				</filter>
			</defs>
			<mask maskUnits="userSpaceOnUse" x="8.5" y="13" width="389.6" height="294.1" id="SVGID_7_">
				<g filter="url(#Adobe_OpacityMaskFilter_4_)">
					<defs>
						<filter id="Adobe_OpacityMaskFilter_5_" filterUnits="userSpaceOnUse" x="8.5" y="13" width="389.6" height="294.1">
							<feFlood  style="flood-color:white;flood-opacity:1" result="back"/>
							<feBlend  in="SourceGraphic" in2="back" mode="normal"/>
						</filter>
					</defs>
					<mask maskUnits="userSpaceOnUse" x="8.5" y="13" width="389.6" height="294.1" id="SVGID_7_">
						<g filter="url(#Adobe_OpacityMaskFilter_5_)">
						</g>
					</mask>
					<linearGradient id="SVGID_8_" gradientUnits="userSpaceOnUse" x1="203.1662" y1="207.1945" x2="51.8894" y2="49.3402">
						<stop  offset="0.2006" style="stop-color:#000000"/>
						<stop  offset="0.2705" style="stop-color:#070707"/>
						<stop  offset="0.3738" style="stop-color:#1B1B1B"/>
						<stop  offset="0.4978" style="stop-color:#3C3C3C"/>
						<stop  offset="0.6379" style="stop-color:#696969"/>
						<stop  offset="0.7916" style="stop-color:#A4A4A4"/>
						<stop  offset="0.9541" style="stop-color:#EAEAEA"/>
						<stop  offset="1" style="stop-color:#FFFFFF"/>
					</linearGradient>
					<path mask="url(#SVGID_7_)" fill="url(#SVGID_8_)" d="M117.8,271.5c4.7-12,3.7-17,2.4-28.7c-6.2-35.2-10.7-44.4-1.4-67.2
						c18.6-45.7,71.5-69.9,116.8-50.9c26.7,11.2,41.4,32.3,53.1,63c8.1,17.5,15.9,24.9,30.2,30.9c29.4,12.3,62.9-1.6,74.9-31.2
						c12-29.6-2-63.5-31.4-75.8c-12.7-5.4-26.3-5.7-38.5-2c-19.7,6.7-42.9,8.8-62.6-2.3C225.3,87.4,208,47,208,47
						c-6.7-14.5-15.1-25-30-30.2c-30.2-10.5-56.8,1.6-70.3,23.3c-0.1,0.2-10.2,17.5-3.1,51.7c0,0,7.6,27.3-4.3,58.5
						c-10.4,27.2-28.4,37.8-58.3,50.5c-12.9,5.7-23.4,15.4-29.2,29.6c-12,29.5,2.5,59.9,31.8,72.2
						C73.8,314.9,106.3,301.2,117.8,271.5z"/>
				</g>
			</mask>
			<linearGradient id="SVGID_9_" gradientUnits="userSpaceOnUse" x1="203.1662" y1="207.1945" x2="51.8894" y2="49.3402">
				<stop  offset="0.2006" style="stop-color:#B455A0"/>
				<stop  offset="0.4101" style="stop-color:#B14F9E"/>
				<stop  offset="0.7186" style="stop-color:#AA3D96"/>
				<stop  offset="1" style="stop-color:#A3238E"/>
			</linearGradient>
			<path fill="url(#SVGID_9_)" d="M117.8,271.5c4.7-12,3.7-17,2.4-28.7c-6.2-35.2-10.7-44.4-1.4-67.2
				c18.6-45.7,71.5-69.9,116.8-50.9c26.7,11.2,41.4,32.3,53.1,63c8.1,17.5,15.9,24.9,30.2,30.9c29.4,12.3,62.9-1.6,74.9-31.2
				c12-29.6-2-63.5-31.4-75.8c-12.7-5.4-26.3-5.7-38.5-2c-19.7,6.7-42.9,8.8-62.6-2.3C225.3,87.4,208,47,208,47
				c-6.7-14.5-15.1-25-30-30.2c-30.2-10.5-56.8,1.6-70.3,23.3c-0.1,0.2-10.2,17.5-3.1,51.7c0,0,7.6,27.3-4.3,58.5
				c-10.4,27.2-28.4,37.8-58.3,50.5c-12.9,5.7-23.4,15.4-29.2,29.6c-12,29.5,2.5,59.9,31.8,72.2C73.8,314.9,106.3,301.2,117.8,271.5
				z"/>
			<defs>
				<filter id="Adobe_OpacityMaskFilter_6_" filterUnits="userSpaceOnUse" x="8.5" y="13" width="389.6" height="294.1">
					<feFlood  style="flood-color:white;flood-opacity:1" result="back"/>
					<feBlend  in="SourceGraphic" in2="back" mode="normal"/>
				</filter>
			</defs>
			<mask maskUnits="userSpaceOnUse" x="8.5" y="13" width="389.6" height="294.1" id="SVGID_10_">
				<g filter="url(#Adobe_OpacityMaskFilter_6_)">
					<defs>
						<filter id="Adobe_OpacityMaskFilter_7_" filterUnits="userSpaceOnUse" x="8.5" y="13" width="389.6" height="294.1">
							<feFlood  style="flood-color:white;flood-opacity:1" result="back"/>
							<feBlend  in="SourceGraphic" in2="back" mode="normal"/>
						</filter>
					</defs>
					<mask maskUnits="userSpaceOnUse" x="8.5" y="13" width="389.6" height="294.1" id="SVGID_10_">
						<g filter="url(#Adobe_OpacityMaskFilter_7_)">
						</g>
					</mask>
					<linearGradient id="SVGID_11_" gradientUnits="userSpaceOnUse" x1="143.2988" y1="125.7777" x2="313.446" y2="357.5492">
						<stop  offset="0.2006" style="stop-color:#000000"/>
						<stop  offset="0.277" style="stop-color:#101010"/>
						<stop  offset="0.4256" style="stop-color:#393939"/>
						<stop  offset="0.6317" style="stop-color:#7B7B7B"/>
						<stop  offset="0.8849" style="stop-color:#D6D6D6"/>
						<stop  offset="0.9949" style="stop-color:#FFFFFF"/>
					</linearGradient>
					<path mask="url(#SVGID_10_)" fill="url(#SVGID_11_)" d="M117.8,271.5c4.7-12,3.7-17,2.4-28.7c-6.2-35.2-10.7-44.4-1.4-67.2
						c18.6-45.7,71.5-69.9,116.8-50.9c26.7,11.2,41.4,32.3,53.1,63c8.1,17.5,15.9,24.9,30.2,30.9c29.4,12.3,62.9-1.6,74.9-31.2
						c12-29.6-2-63.5-31.4-75.8c-12.7-5.4-26.3-5.7-38.5-2c-19.7,6.7-42.9,8.8-62.6-2.3C225.3,87.4,208,47,208,47
						c-6.7-14.5-15.1-25-30-30.2c-30.2-10.5-56.8,1.6-70.3,23.3c-0.1,0.2-10.2,17.5-3.1,51.7c0,0,7.6,27.3-4.3,58.5
						c-10.4,27.2-28.4,37.8-58.3,50.5c-12.9,5.7-23.4,15.4-29.2,29.6c-12,29.5,2.5,59.9,31.8,72.2
						C73.8,314.9,106.3,301.2,117.8,271.5z"/>
				</g>
			</mask>
			<linearGradient id="SVGID_12_" gradientUnits="userSpaceOnUse" x1="143.2988" y1="125.7777" x2="313.446" y2="357.5492">
				<stop  offset="0.2006" style="stop-color:#B455A0"/>
				<stop  offset="0.4946" style="stop-color:#AE489B"/>
				<stop  offset="0.9949" style="stop-color:#A3238E"/>
			</linearGradient>
			<path fill="url(#SVGID_12_)" d="M117.8,271.5c4.7-12,3.7-17,2.4-28.7c-6.2-35.2-10.7-44.4-1.4-67.2
				c18.6-45.7,71.5-69.9,116.8-50.9c26.7,11.2,41.4,32.3,53.1,63c8.1,17.5,15.9,24.9,30.2,30.9c29.4,12.3,62.9-1.6,74.9-31.2
				c12-29.6-2-63.5-31.4-75.8c-12.7-5.4-26.3-5.7-38.5-2c-19.7,6.7-42.9,8.8-62.6-2.3C225.3,87.4,208,47,208,47
				c-6.7-14.5-15.1-25-30-30.2c-30.2-10.5-56.8,1.6-70.3,23.3c-0.1,0.2-10.2,17.5-3.1,51.7c0,0,7.6,27.3-4.3,58.5
				c-10.4,27.2-28.4,37.8-58.3,50.5c-12.9,5.7-23.4,15.4-29.2,29.6c-12,29.5,2.5,59.9,31.8,72.2C73.8,314.9,106.3,301.2,117.8,271.5
				z"/>
		</g>
		<g>
			<defs>
				<filter id="Adobe_OpacityMaskFilter_8_" filterUnits="userSpaceOnUse" x="47.6" y="155.4" width="393.1" height="390.5">
					<feFlood  style="flood-color:white;flood-opacity:1" result="back"/>
					<feBlend  in="SourceGraphic" in2="back" mode="normal"/>
				</filter>
			</defs>
			<mask maskUnits="userSpaceOnUse" x="47.6" y="155.4" width="393.1" height="390.5" id="SVGID_13_">
				<g filter="url(#Adobe_OpacityMaskFilter_8_)">
					<defs>
						<filter id="Adobe_OpacityMaskFilter_9_" filterUnits="userSpaceOnUse" x="47.6" y="155.4" width="393.1" height="390.5">
							<feFlood  style="flood-color:white;flood-opacity:1" result="back"/>
							<feBlend  in="SourceGraphic" in2="back" mode="normal"/>
						</filter>
					</defs>
					<mask maskUnits="userSpaceOnUse" x="47.6" y="155.4" width="393.1" height="390.5" id="SVGID_13_">
						<g filter="url(#Adobe_OpacityMaskFilter_9_)">
						</g>
					</mask>
					<linearGradient id="SVGID_14_" gradientUnits="userSpaceOnUse" x1="151.7447" y1="392.193" x2="63.3888" y2="431.8146">
						<stop  offset="0" style="stop-color:#000000"/>
						<stop  offset="0.1178" style="stop-color:#040404"/>
						<stop  offset="0.2424" style="stop-color:#111111"/>
						<stop  offset="0.3701" style="stop-color:#262626"/>
						<stop  offset="0.5001" style="stop-color:#444444"/>
						<stop  offset="0.6319" style="stop-color:#6A6A6A"/>
						<stop  offset="0.765" style="stop-color:#999999"/>
						<stop  offset="0.8968" style="stop-color:#CFCFCF"/>
						<stop  offset="1" style="stop-color:#FFFFFF"/>
					</linearGradient>
					<path mask="url(#SVGID_13_)" fill="url(#SVGID_14_)" d="M342.7,480.3c-1.1-21.8-4.3-47.1,8.1-68.3c10.8-18.6,28.4-31,47.1-37.8
						c0,0,25.9-7.8,36.1-27.2c14.7-27.6,4-63-20.5-77.6c-20.3-12-58.8-2.9-58.8-2.9c-25,3.5-33.7,1.7-53.5-8.5
						c-20.8-10.7-33.8-37.2-45.1-63.2c-4.1-12.9-12.9-24.3-25.5-31.7c-27.1-15.8-61.8-6.6-77.5,20.5c-15.8,27.1-7.5,63.5,20.5,77.6
						c22.5,11.3,41.2,5.3,41.2,5.3c26.1-7,51.3-5.5,74.3,7.9c41.9,24.4,55.3,78.8,30.9,120.7c-24.4,42-71.3,56.9-114.5,34.7
						c-23.5-12.1-42-54.3-46.7-63.6c-7.3-14.8-12.5-22.8-25.5-30.4c-27.1-15.8-61.8-6.6-77.6,20.5c-15.8,27.1-8.2,59.4,18.9,75.2
						c12.2,7,25.9,9.1,38.7,6.8c0,0,52.2-7.1,76.2,6.8c24,14,43.3,63,43.6,62.8c6.9,14.8,12.9,23.3,25,30.4
						c27,15.8,61.8,6.6,77.6-20.6C342.5,505.9,343.9,496.3,342.7,480.3z"/>
				</g>
			</mask>
			<linearGradient id="SVGID_15_" gradientUnits="userSpaceOnUse" x1="151.7447" y1="392.193" x2="63.3888" y2="431.8146">
				<stop  offset="0" style="stop-color:#3B3946"/>
				<stop  offset="0.2733" style="stop-color:#3A3843"/>
				<stop  offset="0.562" style="stop-color:#35333C"/>
				<stop  offset="0.857" style="stop-color:#1F1E21"/>
				<stop  offset="1" style="stop-color:#000000"/>
			</linearGradient>
			<path fill="url(#SVGID_15_)" d="M342.7,480.3c-1.1-21.8-4.3-47.1,8.1-68.3c10.8-18.6,28.4-31,47.1-37.8c0,0,25.9-7.8,36.1-27.2
				c14.7-27.6,4-63-20.5-77.6c-20.3-12-58.8-2.9-58.8-2.9c-25,3.5-33.7,1.7-53.5-8.5c-20.8-10.7-33.8-37.2-45.1-63.2
				c-4.1-12.9-12.9-24.3-25.5-31.7c-27.1-15.8-61.8-6.6-77.5,20.5c-15.8,27.1-7.5,63.5,20.5,77.6c22.5,11.3,41.2,5.3,41.2,5.3
				c26.1-7,51.3-5.5,74.3,7.9c41.9,24.4,55.3,78.8,30.9,120.7c-24.4,42-71.3,56.9-114.5,34.7c-23.5-12.1-42-54.3-46.7-63.6
				c-7.3-14.8-12.5-22.8-25.5-30.4c-27.1-15.8-61.8-6.6-77.6,20.5c-15.8,27.1-8.2,59.4,18.9,75.2c12.2,7,25.9,9.1,38.7,6.8
				c0,0,52.2-7.1,76.2,6.8c24,14,43.3,63,43.6,62.8c6.9,14.8,12.9,23.3,25,30.4c27,15.8,61.8,6.6,77.6-20.6
				C342.5,505.9,343.9,496.3,342.7,480.3z"/>
			<defs>
				<filter id="Adobe_OpacityMaskFilter_10_" filterUnits="userSpaceOnUse" x="47.6" y="155.4" width="393.1" height="390.5">
					<feFlood  style="flood-color:white;flood-opacity:1" result="back"/>
					<feBlend  in="SourceGraphic" in2="back" mode="normal"/>
				</filter>
			</defs>
			<mask maskUnits="userSpaceOnUse" x="47.6" y="155.4" width="393.1" height="390.5" id="SVGID_16_">
				<g filter="url(#Adobe_OpacityMaskFilter_10_)">
					<defs>
						<filter id="Adobe_OpacityMaskFilter_11_" filterUnits="userSpaceOnUse" x="47.6" y="155.4" width="393.1" height="390.5">
							<feFlood  style="flood-color:white;flood-opacity:1" result="back"/>
							<feBlend  in="SourceGraphic" in2="back" mode="normal"/>
						</filter>
					</defs>
					<mask maskUnits="userSpaceOnUse" x="47.6" y="155.4" width="393.1" height="390.5" id="SVGID_16_">
						<g filter="url(#Adobe_OpacityMaskFilter_11_)">
						</g>
					</mask>
					<linearGradient id="SVGID_17_" gradientUnits="userSpaceOnUse" x1="300.287" y1="389.8154" x2="378.6587" y2="444.6424">
						<stop  offset="0" style="stop-color:#000000"/>
						<stop  offset="0.1477" style="stop-color:#030303"/>
						<stop  offset="0.2763" style="stop-color:#0E0E0E"/>
						<stop  offset="0.3977" style="stop-color:#202020"/>
						<stop  offset="0.5147" style="stop-color:#393939"/>
						<stop  offset="0.6288" style="stop-color:#5A5A5A"/>
						<stop  offset="0.7405" style="stop-color:#828282"/>
						<stop  offset="0.8502" style="stop-color:#B1B1B1"/>
						<stop  offset="0.9559" style="stop-color:#E6E6E6"/>
						<stop  offset="1" style="stop-color:#FFFFFF"/>
					</linearGradient>
					<path mask="url(#SVGID_16_)" fill="url(#SVGID_17_)" d="M342.7,480.3c-1.1-21.8-4.3-47.1,8.1-68.3c10.8-18.6,28.4-31,47.1-37.8
						c0,0,25.9-7.8,36.1-27.2c14.7-27.6,4-63-20.5-77.6c-20.3-12-58.8-2.9-58.8-2.9c-25,3.5-33.7,1.7-53.5-8.5
						c-20.8-10.7-33.8-37.2-45.1-63.2c-4.1-12.9-12.9-24.3-25.5-31.7c-27.1-15.8-61.8-6.6-77.5,20.5c-15.8,27.1-7.5,63.5,20.5,77.6
						c22.5,11.3,41.2,5.3,41.2,5.3c26.1-7,51.3-5.5,74.3,7.9c41.9,24.4,55.3,78.8,30.9,120.7c-24.4,42-71.3,56.9-114.5,34.7
						c-23.5-12.1-42-54.3-46.7-63.6c-7.4-14.8-12.5-22.8-25.5-30.4c-27.1-15.8-61.8-6.6-77.6,20.5c-15.8,27.1-8.2,59.4,18.9,75.2
						c12.2,7,25.9,9.1,38.7,6.8c0,0,52.2-7.1,76.2,6.8c24,14,43.3,63,43.6,62.8c6.9,14.8,12.9,23.3,25,30.4
						c27,15.8,61.8,6.6,77.6-20.6C342.5,505.9,343.9,496.3,342.7,480.3z"/>
				</g>
			</mask>
			<linearGradient id="SVGID_18_" gradientUnits="userSpaceOnUse" x1="300.287" y1="389.8154" x2="378.6587" y2="444.6424">
				<stop  offset="0" style="stop-color:#3B3946"/>
				<stop  offset="0.3019" style="stop-color:#3A3844"/>
				<stop  offset="0.5645" style="stop-color:#36343E"/>
				<stop  offset="0.8116" style="stop-color:#27262A"/>
				<stop  offset="1" style="stop-color:#000000"/>
			</linearGradient>
			<path fill="url(#SVGID_18_)" d="M342.7,480.3c-1.1-21.8-4.3-47.1,8.1-68.3c10.8-18.6,28.4-31,47.1-37.8c0,0,25.9-7.8,36.1-27.2
				c14.7-27.6,4-63-20.5-77.6c-20.3-12-58.8-2.9-58.8-2.9c-25,3.5-33.7,1.7-53.5-8.5c-20.8-10.7-33.8-37.2-45.1-63.2
				c-4.1-12.9-12.9-24.3-25.5-31.7c-27.1-15.8-61.8-6.6-77.5,20.5c-15.8,27.1-7.5,63.5,20.5,77.6c22.5,11.3,41.2,5.3,41.2,5.3
				c26.1-7,51.3-5.5,74.3,7.9c41.9,24.4,55.3,78.8,30.9,120.7c-24.4,42-71.3,56.9-114.5,34.7c-23.5-12.1-42-54.3-46.7-63.6
				c-7.4-14.8-12.5-22.8-25.5-30.4c-27.1-15.8-61.8-6.6-77.6,20.5c-15.8,27.1-8.2,59.4,18.9,75.2c12.2,7,25.9,9.1,38.7,6.8
				c0,0,52.2-7.1,76.2,6.8c24,14,43.3,63,43.6,62.8c6.9,14.8,12.9,23.3,25,30.4c27,15.8,61.8,6.6,77.6-20.6
				C342.5,505.9,343.9,496.3,342.7,480.3z"/>
			<defs>
				<filter id="Adobe_OpacityMaskFilter_12_" filterUnits="userSpaceOnUse" x="47.6" y="155.4" width="393.1" height="390.5">
					<feFlood  style="flood-color:white;flood-opacity:1" result="back"/>
					<feBlend  in="SourceGraphic" in2="back" mode="normal"/>
				</filter>
			</defs>
			<mask maskUnits="userSpaceOnUse" x="47.6" y="155.4" width="393.1" height="390.5" id="SVGID_19_">
				<g filter="url(#Adobe_OpacityMaskFilter_12_)">
					<defs>
						<filter id="Adobe_OpacityMaskFilter_13_" filterUnits="userSpaceOnUse" x="47.6" y="155.4" width="393.1" height="390.5">
							<feFlood  style="flood-color:white;flood-opacity:1" result="back"/>
							<feBlend  in="SourceGraphic" in2="back" mode="normal"/>
						</filter>
					</defs>
					<mask maskUnits="userSpaceOnUse" x="47.6" y="155.4" width="393.1" height="390.5" id="SVGID_19_">
						<g filter="url(#Adobe_OpacityMaskFilter_13_)">
						</g>
					</mask>
					<linearGradient id="SVGID_20_" gradientUnits="userSpaceOnUse" x1="272.2672" y1="332.6408" x2="415.4333" y2="240.1575">
						<stop  offset="4.079330e-02" style="stop-color:#000000"/>
						<stop  offset="0.1415" style="stop-color:#131313"/>
						<stop  offset="0.3456" style="stop-color:#444444"/>
						<stop  offset="0.635" style="stop-color:#939393"/>
						<stop  offset="0.9957" style="stop-color:#FEFEFE"/>
						<stop  offset="1" style="stop-color:#FFFFFF"/>
					</linearGradient>
					<path mask="url(#SVGID_19_)" fill="url(#SVGID_20_)" d="M342.7,480.3c-1.1-21.8-4.3-47.1,8.1-68.3c10.8-18.6,28.4-31,47.1-37.8
						c0,0,25.9-7.8,36.1-27.2c14.7-27.6,4-63-20.5-77.6c-20.3-12-58.8-2.9-58.8-2.9c-25,3.5-33.7,1.7-53.5-8.5
						c-20.8-10.7-33.8-37.2-45.1-63.2c-4.1-12.9-12.9-24.3-25.5-31.7c-27.1-15.8-61.8-6.6-77.5,20.5c-15.8,27.1-7.5,63.5,20.5,77.6
						c22.5,11.3,41.2,5.3,41.2,5.3c26.1-7,51.3-5.5,74.3,7.9c41.9,24.4,55.3,78.8,30.9,120.7c-24.4,42-71.3,56.9-114.5,34.7
						c-23.5-12.1-42-54.3-46.7-63.6c-7.3-14.8-12.5-22.8-25.5-30.4c-27.1-15.8-61.8-6.6-77.6,20.5c-15.8,27.1-8.2,59.4,18.9,75.2
						c12.2,7,25.9,9.1,38.7,6.8c0,0,52.2-7.1,76.2,6.8c24,14,43.3,63,43.6,62.8c6.9,14.8,12.9,23.3,25,30.4
						c27,15.8,61.8,6.6,77.6-20.6C342.5,505.9,343.9,496.3,342.7,480.3z"/>
				</g>
			</mask>
			<linearGradient id="SVGID_21_" gradientUnits="userSpaceOnUse" x1="272.2672" y1="332.6408" x2="415.4333" y2="240.1575">
				<stop  offset="4.079330e-02" style="stop-color:#3B3946"/>
				<stop  offset="0.4441" style="stop-color:#35333B"/>
				<stop  offset="1" style="stop-color:#000000"/>
			</linearGradient>
			<path fill="url(#SVGID_21_)" d="M342.7,480.3c-1.1-21.8-4.3-47.1,8.1-68.3c10.8-18.6,28.4-31,47.1-37.8c0,0,25.9-7.8,36.1-27.2
				c14.7-27.6,4-63-20.5-77.6c-20.3-12-58.8-2.9-58.8-2.9c-25,3.5-33.7,1.7-53.5-8.5c-20.8-10.7-33.8-37.2-45.1-63.2
				c-4.1-12.9-12.9-24.3-25.5-31.7c-27.1-15.8-61.8-6.6-77.5,20.5c-15.8,27.1-7.5,63.5,20.5,77.6c22.5,11.3,41.2,5.3,41.2,5.3
				c26.1-7,51.3-5.5,74.3,7.9c41.9,24.4,55.3,78.8,30.9,120.7c-24.4,42-71.3,56.9-114.5,34.7c-23.5-12.1-42-54.3-46.7-63.6
				c-7.3-14.8-12.5-22.8-25.5-30.4c-27.1-15.8-61.8-6.6-77.6,20.5c-15.8,27.1-8.2,59.4,18.9,75.2c12.2,7,25.9,9.1,38.7,6.8
				c0,0,52.2-7.1,76.2,6.8c24,14,43.3,63,43.6,62.8c6.9,14.8,12.9,23.3,25,30.4c27,15.8,61.8,6.6,77.6-20.6
				C342.5,505.9,343.9,496.3,342.7,480.3z"/>
			<defs>
				<filter id="Adobe_OpacityMaskFilter_14_" filterUnits="userSpaceOnUse" x="47.6" y="155.4" width="393.1" height="390.5">
					<feFlood  style="flood-color:white;flood-opacity:1" result="back"/>
					<feBlend  in="SourceGraphic" in2="back" mode="normal"/>
				</filter>
			</defs>
			<mask maskUnits="userSpaceOnUse" x="47.6" y="155.4" width="393.1" height="390.5" id="SVGID_22_">
				<g filter="url(#Adobe_OpacityMaskFilter_14_)">
					<defs>
						<filter id="Adobe_OpacityMaskFilter_15_" filterUnits="userSpaceOnUse" x="47.6" y="155.4" width="393.1" height="390.5">
							<feFlood  style="flood-color:white;flood-opacity:1" result="back"/>
							<feBlend  in="SourceGraphic" in2="back" mode="normal"/>
						</filter>
					</defs>
					<mask maskUnits="userSpaceOnUse" x="47.6" y="155.4" width="393.1" height="390.5" id="SVGID_22_">
						<g filter="url(#Adobe_OpacityMaskFilter_15_)">
						</g>
					</mask>
					<linearGradient id="SVGID_23_" gradientUnits="userSpaceOnUse" x1="241.6281" y1="267.4598" x2="237.9471" y2="142.239">
						<stop  offset="4.589540e-02" style="stop-color:#000000"/>
						<stop  offset="0.1461" style="stop-color:#131313"/>
						<stop  offset="0.3491" style="stop-color:#444444"/>
						<stop  offset="0.6369" style="stop-color:#939393"/>
						<stop  offset="0.9957" style="stop-color:#FEFEFE"/>
						<stop  offset="1" style="stop-color:#FFFFFF"/>
					</linearGradient>
					<path mask="url(#SVGID_22_)" fill="url(#SVGID_23_)" d="M342.7,480.3c-1.1-21.8-4.3-47.1,8.1-68.3c10.8-18.6,28.4-31,47.1-37.8
						c0,0,25.9-7.8,36.1-27.2c14.7-27.6,4-63-20.5-77.6c-20.3-12-58.8-2.9-58.8-2.9c-25,3.5-33.7,1.7-53.5-8.5
						c-20.8-10.7-33.8-37.2-45.1-63.2c-4.1-12.9-12.9-24.3-25.5-31.7c-27.1-15.8-61.8-6.6-77.5,20.5c-15.8,27.1-7.5,63.5,20.5,77.6
						c22.5,11.3,41.2,5.3,41.2,5.3c26-7,51.3-5.5,74.3,7.9c41.9,24.4,55.3,78.8,30.9,120.7c-24.4,42-71.3,56.9-114.5,34.7
						c-23.5-12.1-42-54.3-46.7-63.6c-7.4-14.8-12.5-22.8-25.5-30.4c-27.1-15.8-61.8-6.6-77.6,20.5c-15.8,27.1-8.2,59.4,18.9,75.2
						c12.2,7,25.9,9.1,38.7,6.8c0,0,52.2-7.1,76.2,6.8c24,14,43.3,63,43.6,62.8c6.9,14.8,12.9,23.3,25,30.4
						c27,15.8,61.8,6.6,77.6-20.6C342.5,505.9,343.8,496.3,342.7,480.3z"/>
				</g>
			</mask>
			<linearGradient id="SVGID_24_" gradientUnits="userSpaceOnUse" x1="241.6281" y1="267.4598" x2="237.9471" y2="142.239">
				<stop  offset="4.589540e-02" style="stop-color:#3B3946"/>
				<stop  offset="0.4471" style="stop-color:#35333B"/>
				<stop  offset="1" style="stop-color:#000000"/>
			</linearGradient>
			<path fill="url(#SVGID_24_)" d="M342.7,480.3c-1.1-21.8-4.3-47.1,8.1-68.3c10.8-18.6,28.4-31,47.1-37.8c0,0,25.9-7.8,36.1-27.2
				c14.7-27.6,4-63-20.5-77.6c-20.3-12-58.8-2.9-58.8-2.9c-25,3.5-33.7,1.7-53.5-8.5c-20.8-10.7-33.8-37.2-45.1-63.2
				c-4.1-12.9-12.9-24.3-25.5-31.7c-27.1-15.8-61.8-6.6-77.5,20.5c-15.8,27.1-7.5,63.5,20.5,77.6c22.5,11.3,41.2,5.3,41.2,5.3
				c26-7,51.3-5.5,74.3,7.9c41.9,24.4,55.3,78.8,30.9,120.7c-24.4,42-71.3,56.9-114.5,34.7c-23.5-12.1-42-54.3-46.7-63.6
				c-7.4-14.8-12.5-22.8-25.5-30.4c-27.1-15.8-61.8-6.6-77.6,20.5c-15.8,27.1-8.2,59.4,18.9,75.2c12.2,7,25.9,9.1,38.7,6.8
				c0,0,52.2-7.1,76.2,6.8c24,14,43.3,63,43.6,62.8c6.9,14.8,12.9,23.3,25,30.4c27,15.8,61.8,6.6,77.6-20.6
				C342.5,505.9,343.8,496.3,342.7,480.3z"/>
		</g>
	</g>
</g>
<line fill="none" x1="-57" y1="301" x2="1975" y2="301"/>
</svg>
